<?xml version="1.0" standalone="no"?><!-- Generator: Gravit.io --><svg xmlns="http://www.w3.org/2000/svg" xmlns:xlink="http://www.w3.org/1999/xlink" style="isolation:isolate" viewBox="0 0 600 600" width="600" height="600"><defs><clipPath id="_clipPath_GPJBjEECNPpbtZgtvrRpsRrAPeUAF4tV"><rect width="600" height="600"/></clipPath></defs><g clip-path="url(#_clipPath_GPJBjEECNPpbtZgtvrRpsRrAPeUAF4tV)"><g id="Group"><g id="Group"><line x1="225.794" y1="49.143" x2="229.226" y2="59.103" vector-effect="non-scaling-stroke" stroke-width="4.167" stroke="rgb(93,64,55)" stroke-linejoin="round" stroke-linecap="round" stroke-miterlimit="4"/><path d=" M 226.569 59.66 L 229.146 59.12 C 229.146 59.12 233.013 58.31 235.861 59.059" fill="none" vector-effect="non-scaling-stroke" stroke-width="4.167" stroke="rgb(93,64,55)" stroke-linejoin="round" stroke-linecap="round" stroke-miterlimit="4"/></g><g id="Group"><line x1="223.469" y1="50.891" x2="226.902" y2="60.852" vector-effect="non-scaling-stroke" stroke-width="4.167" stroke="rgb(121,85,72)" stroke-linejoin="round" stroke-linecap="round" stroke-miterlimit="4"/><path d=" M 224.261 61.489 L 226.839 60.949 C 226.839 60.949 230.705 60.139 233.553 60.888" fill="none" vector-effect="non-scaling-stroke" stroke-width="4.167" stroke="rgb(121,85,72)" stroke-linejoin="round" stroke-linecap="round" stroke-miterlimit="4"/></g><g id="Group"><path d=" M 217.13 40.11 C 217.13 40.11 226.207 38.255 229.264 33.579 C 231.176 30.538 230.299 26.526 227.293 24.561 C 224.286 22.596 220.259 23.403 218.242 26.375 C 214.676 31.831 217.13 40.11 217.13 40.11 Z " fill="rgb(255,193,7)"/><path d=" M 236.119 48.28 C 232.123 54.391 215.717 59.242 215.717 59.242 C 215.717 59.242 213.846 43.557 218.349 36.667 C 219.889 34.311 222.302 32.662 225.058 32.085 C 227.813 31.508 230.685 32.049 233.041 33.589 C 235.398 35.129 237.046 37.542 237.623 40.297 C 238.2 43.052 237.659 45.924 236.119 48.28 Z " fill="rgb(255,193,7)"/></g><path d=" M 229.59 26.794 L 232.714 21.372 L 227.547 24.621 L 226.497 28.619 L 230.302 29.575 L 235.083 26.258 L 229.59 26.794 Z " fill="rgb(69,90,100)"/><path d=" M 221.869 26.577 C 222.027 26.794 222.146 27.044 222.204 27.321 C 222.423 28.37 221.75 29.403 220.699 29.624 C 220.42 29.682 220.144 29.674 219.883 29.616 C 220.424 30.352 221.405 30.612 222.24 30.241 C 223.075 29.87 223.539 28.968 223.355 28.073 C 223.197 27.326 222.615 26.741 221.869 26.577 Z " fill="rgb(121,85,72)"/><path d=" M 242.297 11.965 C 241.469 12.138 240.115 12.371 240.27 13.131 L 241.809 20.476 C 241.809 20.476 241.455 20.354 240.737 20.593 C 239.288 21.078 238.334 22.492 238.579 23.678 C 238.823 24.876 240.176 25.355 241.614 24.844 C 243.05 24.327 243.925 23 243.682 21.802 L 242.412 15.739 C 242.301 15.21 242.666 14.897 242.888 14.851 C 247.605 13.863 247.782 16.588 247.782 16.588 C 247.782 16.588 247.647 10.844 242.297 11.965 Z " fill="rgb(255,23,68)"/><path d=" M 227.545 46.359 C 225.531 49.441 220.598 53.29 213.808 56.294 C 214.214 47.659 215.155 42.658 217.168 39.577 C 219.182 36.495 223.138 35.517 226.003 37.391 C 228.868 39.261 229.557 43.277 227.545 46.359 Z " fill="rgb(144,164,174)"/><path d=" M 215.717 59.242 C 215.717 59.242 215.643 58.597 215.558 57.547 L 206.358 62.549 C 207.708 68.993 215.171 66.084 215.171 66.084 L 217.688 58.83 L 217.751 58.59 C 216.495 59.012 215.717 59.242 215.717 59.242 Z  M 214.988 45.374 C 214.391 48.164 214.023 51.715 213.808 56.294 C 220.598 53.29 225.531 49.439 227.545 46.359 C 228.502 44.913 228.881 43.161 228.606 41.449 C 222.479 41.68 217.88 43.642 214.988 45.374 Z " fill="rgb(96,125,139)"/><path d=" M 224.858 41.847 C 224.711 42.175 224.556 42.499 224.353 42.808 C 222.713 45.315 219.116 48.329 214.18 50.984 C 214.094 51.877 214.017 52.808 213.951 53.808 C 219.899 50.933 224.233 47.463 226.08 44.633 C 226.679 43.707 227.05 42.652 227.162 41.555 C 226.391 41.624 225.622 41.721 224.858 41.847 Z  M 214.491 48.297 C 217.73 46.386 220.267 44.353 221.91 42.482 C 219.48 43.123 217.151 44.096 214.988 45.374 C 214.798 46.261 214.635 47.242 214.491 48.297 Z " fill="rgb(55,71,79)"/></g><g id="Group"><path d=" M 151.581 287.946 C 175.867 289.002 228.662 285.834 252.948 294.282 C 277.234 302.729 317.359 257.325 319.47 224.592 Q 321.964 185.981 281.458 158.069 L 265.619 148.566 Q 287.105 116.263 265.619 81.908 Q 247.202 52.46 205.432 56.702 Q 157.916 57.758 151.581 116.889 Q 86.114 153.846 91.394 202.418 C 96.674 250.989 127.295 286.89 151.581 287.946 Z " fill="rgb(189,181,73)"/><path d=" M 148.08 274.554 C 170.963 275.549 220.708 272.564 243.591 280.523 C 266.473 288.483 304.279 245.702 306.269 214.86 Q 308.619 178.481 270.453 152.181 L 255.529 143.227 Q 275.774 112.791 255.529 80.42 Q 238.177 52.674 198.82 56.671 Q 154.05 57.666 148.08 113.38 Q 86.397 148.202 91.371 193.967 C 96.346 239.732 125.198 273.559 148.08 274.554 Z " fill="rgb(211,230,106)"/><path d=" M 210.059 305.662 L 216.395 311.997 L 216.395 321.5 L 216.395 350.01 L 216.395 363.835 C 216.058 368.991 206.586 378.24 200.556 376.506 L 194.22 369.016 L 194.22 350.01 L 194.22 321.5 L 194.22 305.662 Q 200.358 295.3 210.059 305.662 Z " fill="rgb(225,105,35)"/><path d=" M 208.459 305.138 L 214.154 310.834 L 214.154 319.377 L 214.154 345.006 L 214.154 357.434 C 213.851 362.069 205.337 370.383 199.916 368.825 L 194.22 362.091 L 194.22 345.006 L 194.22 319.377 L 194.22 305.138 Q 199.738 295.823 208.459 305.138 Z " fill="rgb(179,110,71)" fill-opacity="0.75"/></g><g id="Group" style="opacity:0.81;"><g opacity="0.04"><path d=" M 267.476 295.086 C 273.345 318.675 291.343 368.41 290.123 394.094 C 288.904 419.778 343.817 445.392 375.807 438.143 Q 413.541 429.594 428.831 382.838 L 433.457 364.956 Q 470.524 376.409 497.384 346.068 Q 520.406 320.062 504.502 281.206 Q 490.026 235.937 431.523 246.616 Q 377.531 194.305 332.446 213.131 C 287.36 231.957 261.608 271.496 267.476 295.086 Z " fill="rgb(55,51,51)"/></g><g opacity="0.04"><path d=" M 267.057 356.187 L 262.776 364.058 L 253.663 366.751 L 226.322 374.829 L 213.063 378.747 C 208.023 379.884 196.47 373.422 196.423 367.147 L 201.811 358.949 L 220.038 353.564 L 247.38 345.486 L 262.569 340.998 Q 274.245 343.947 267.057 356.187 Z " fill="rgb(139,139,139)"/></g><g opacity="0.04"><path d=" M 267.106 354.504 L 263.257 361.58 L 255.065 364 L 230.486 371.262 L 218.567 374.784 C 214.036 375.807 203.65 369.997 203.609 364.357 L 208.452 356.987 L 224.838 352.146 L 249.416 344.884 L 263.071 340.849 Q 273.568 343.501 267.106 354.504 Z " fill="rgb(55,51,51)"/></g></g><g id="Group"><path d=" M 177.653 184.063 L 176.787 185.174 L 176.689 185.294 C 175.624 185.417 174.394 185.71 173.622 186.059 L 171.398 185.918 C 170.754 185.525 169.748 185.127 168.797 184.868 L 168.789 184.858 L 168.171 183.761 L 167.887 183.255 L 171.382 172.013 C 172.101 172.212 172.861 172.351 173.635 172.4 C 174.14 172.432 174.637 172.427 175.127 172.395 L 177.653 184.063 L 177.653 184.063 Z  M 173.652 165.566 C 173.78 165.394 173.935 165.232 174.108 165.071 C 174.259 165.252 174.392 165.442 174.498 165.62 C 176.456 160.826 181.108 158.589 184.317 157.589 C 186.245 156.988 187.656 156.833 187.656 156.833 L 161.706 155.192 L 161.715 155.193 C 161.839 155.219 163.165 155.565 164.914 156.354 C 167.971 157.758 172.323 160.556 173.652 165.566 L 173.652 165.566 Z " fill="rgb(214,180,139)"/><path d=" M 174.108 165.071 L 173.774 170.356 C 173.774 170.356 171.957 167.774 173.652 165.566 C 173.78 165.403 173.935 165.232 174.108 165.071 Z " fill="rgb(137,111,81)"/><path d=" M 167.896 183.256 L 168.18 183.762 C 166.173 180.335 162.898 173.357 166.336 168.883 C 167.672 170.35 169.41 171.464 171.391 172.014 L 167.896 183.256 L 167.896 183.256 Z  M 177.653 184.063 L 176.787 185.174 C 178.981 182.51 184.203 175.274 181.214 169.932 C 179.534 171.335 177.416 172.223 175.127 172.395 L 177.653 184.063 Z  M 171.407 185.919 L 169.48 185.797 L 169.488 185.806 L 175.89 186.211 L 175.9 186.203 L 171.407 185.919 L 171.407 185.919 Z  M 187.655 156.842 C 187.655 156.842 186.244 156.997 184.317 157.598 C 184.576 158.22 184.769 158.874 184.898 159.552 C 186.506 159.292 187.655 156.842 187.655 156.842 L 187.655 156.842 Z  M 161.714 155.202 C 161.729 155.248 162.555 157.768 164.09 158.227 C 164.303 157.572 164.578 156.947 164.904 156.362 C 163.164 155.574 161.838 155.237 161.714 155.202 L 161.714 155.202 Z  M 173.774 170.356 C 173.774 170.356 175.91 168.024 174.498 165.62 C 174.392 165.433 174.259 165.252 174.108 165.071 L 173.774 170.356 Z  M 169.508 161.327 C 169.048 161.298 168.607 161.516 168.352 161.9 C 168.097 162.284 168.066 162.775 168.271 163.188 C 168.476 163.601 168.885 163.873 169.345 163.902 C 170.056 163.947 170.669 163.407 170.714 162.696 C 170.759 161.985 170.219 161.372 169.508 161.327 L 169.508 161.327 Z  M 179.431 161.954 C 178.971 161.925 178.53 162.144 178.275 162.527 C 178.02 162.911 177.989 163.402 178.194 163.815 C 178.398 164.228 178.808 164.5 179.268 164.529 C 179.979 164.574 180.592 164.034 180.637 163.323 C 180.682 162.612 180.142 161.999 179.431 161.954 L 179.431 161.954 Z " fill="rgb(119,96,64)"/><path d=" M 174.498 165.62 C 175.911 168.015 173.774 170.356 173.774 170.356 C 173.774 170.356 171.957 167.774 173.652 165.566 C 172.323 160.556 167.971 157.758 164.913 156.363 C 164.587 156.948 164.312 157.572 164.099 158.228 C 163.81 159.086 163.634 160.006 163.574 160.961 C 163.382 163.986 164.461 166.802 166.345 168.883 C 167.681 170.351 169.419 171.464 171.4 172.014 C 172.119 172.214 172.879 172.352 173.654 172.401 C 174.158 172.433 174.655 172.428 175.145 172.396 C 177.434 172.224 179.543 171.336 181.232 169.933 C 183.436 168.102 184.908 165.401 185.103 162.322 C 185.163 161.367 185.095 160.441 184.925 159.553 C 184.796 158.876 184.594 158.222 184.344 157.6 C 181.107 158.598 176.456 160.826 174.498 165.62 L 174.498 165.62 Z  M 169.345 163.902 C 168.885 163.873 168.476 163.601 168.271 163.188 C 168.066 162.775 168.097 162.284 168.352 161.9 C 168.607 161.516 169.048 161.298 169.508 161.327 C 170.219 161.372 170.759 161.985 170.714 162.696 C 170.669 163.407 170.056 163.947 169.345 163.902 L 169.345 163.902 Z  M 179.268 164.529 C 178.808 164.5 178.398 164.228 178.194 163.815 C 177.989 163.402 178.02 162.911 178.275 162.527 C 178.53 162.144 178.971 161.925 179.431 161.954 C 180.142 161.999 180.682 162.612 180.637 163.323 C 180.592 164.034 179.979 164.574 179.268 164.529 L 179.268 164.529 Z  M 169.489 185.797 L 166.076 185.582 C 166.076 185.582 166.019 184.484 167.172 184.557 C 167.622 184.586 168.202 184.704 168.806 184.868 C 169.757 185.127 170.763 185.525 171.407 185.919 L 169.489 185.797 Z  M 173.631 186.059 C 174.403 185.71 175.624 185.417 176.698 185.295 C 177.19 185.236 177.643 185.219 178.004 185.242 C 179.156 185.315 178.961 186.396 178.961 186.396 L 173.631 186.059 Z " fill="rgb(242,220,196)"/></g><g opacity="0.32"><path d=" M 208.172 260.739 L 208.172 255.633 Q 209.057 252.555 212.227 250.526 Q 215.397 248.497 228.445 240.312 L 240.609 230.098 Q 245.493 221.924 240.609 219.885 C 235.724 217.846 238.058 215.072 228.445 219.885 Q 218.832 224.697 212.227 230.098 L 212.227 168.817 Q 204.391 142.749 196.009 163.71 L 196.009 189.244 L 196.009 194.351 L 183.845 189.244 Q 176.064 183.604 171.682 184.137 C 167.299 184.671 165.185 189.607 171.682 194.351 C 178.178 199.095 183.879 202.939 187.9 209.671 C 191.92 216.404 197.234 213.386 196.009 224.992 Q 194.783 236.597 196.009 245.419 L 196.009 255.633 L 196.009 260.739 Q 204.956 269.736 208.172 260.739 Z " fill="rgb(153,127,127)"/></g><path d=" M 187.099 271.892 C 187.099 271.892 177.095 258.27 176.191 266.464 C 175.339 274.606 187.099 271.892 187.099 271.892 Z  M 188.11 271.892 C 188.11 271.892 198.114 258.27 199.019 266.464 C 199.923 274.606 188.11 271.892 188.11 271.892 Z  M 161.291 260.132 C 161.291 260.132 155.065 251.618 154.48 256.726 C 154.48 256.726 161.291 260.132 161.291 260.132 Z  M 161.877 260.132 C 161.877 260.132 168.102 251.618 168.688 256.726 C 168.688 256.726 161.877 260.132 161.877 260.132 Z  M 215.993 264.602 C 215.993 264.602 209.768 256.088 209.182 261.196 C 209.182 261.196 215.993 264.602 215.993 264.602 Z  M 216.579 264.602 C 216.579 264.602 222.805 256.088 223.39 261.196 C 223.975 266.305 216.579 264.602 216.579 264.602 Z  M 262.554 260.345 C 262.554 260.345 256.328 251.831 255.743 256.939 C 255.743 256.939 262.554 260.345 262.554 260.345 Z  M 263.193 260.345 C 263.193 260.345 269.419 251.831 270.004 256.939 C 270.004 256.939 263.193 260.345 263.193 260.345 Z  M 242.812 271.892 C 242.812 271.892 232.809 258.27 231.904 266.464 C 230.999 274.606 242.812 271.892 242.812 271.892 Z  M 243.77 271.892 C 243.77 271.892 253.774 258.27 254.679 266.464 C 255.583 274.606 243.77 271.892 243.77 271.892 Z " fill="rgb(189,181,73)"/><path d=" M 253.621 208.537 C 253.621 208.537 243.618 194.915 242.713 203.11 C 241.862 211.251 253.621 208.537 253.621 208.537 Z  M 254.632 208.537 C 254.632 208.537 264.636 194.915 265.541 203.11 C 266.446 211.251 254.632 208.537 254.632 208.537 Z  M 227.813 196.777 C 227.813 196.777 221.588 188.263 221.002 193.372 C 221.002 193.372 227.813 196.777 227.813 196.777 Z  M 228.399 196.777 C 228.399 196.777 234.625 188.263 235.21 193.372 C 235.21 193.372 228.399 196.777 228.399 196.777 Z  M 282.516 201.247 C 282.516 201.247 276.29 192.733 275.705 197.842 C 275.705 197.842 282.516 201.247 282.516 201.247 Z  M 283.101 201.247 C 283.101 201.247 289.327 192.733 289.912 197.842 C 290.498 202.95 283.101 201.247 283.101 201.247 Z " fill="rgb(189,181,73)"/></g></svg>